<svg version="1.1" viewBox="0 0 96 96" xmlns="http://www.w3.org/2000/svg" xmlns:xlink="http://www.w3.org/1999/xlink" id="Icons_Beaker" overflow="hidden"><style>
.MsftOfcThm_Background1_Fill {
 fill:#FFFFFF; 
}
</style>
<circle cx="40" cy="22" r="6" stroke="none" stroke-width="1" stroke-dasharray="" stroke-dashoffset="1" fill="#FFFFFF" fill-opacity="1"/><circle cx="37" cy="7" r="3" stroke="none" stroke-width="1" stroke-dasharray="" stroke-dashoffset="1" fill="#FFFFFF" fill-opacity="1"/><circle cx="54" cy="25" r="3" stroke="none" stroke-width="1" stroke-dasharray="" stroke-dashoffset="1" fill="#FFFFFF" fill-opacity="1"/><circle cx="56" cy="12" r="4" stroke="none" stroke-width="1" stroke-dasharray="" stroke-dashoffset="1" fill="#FFFFFF" fill-opacity="1"/><path d=" M 75.9 32.5 C 75.7 31.6 74.9 31 74 31 L 22 31 C 21.1 31 20.3 31.6 20.1 32.5 C 19.9 33.4 20.3 34.3 21.1 34.7 C 21.1 34.7 24.1 36.4 24.1 40 L 24.1 86 C 24.1 89.3 26.8 92 30.1 92 L 66.1 92 C 69.4 92 72.1 89.3 72.1 86 L 72.1 40 C 72.1 36.4 74.9 34.8 75 34.8 C 75.7 34.3 76.2 33.4 75.9 32.5 Z M 62 84 L 50 84 L 50 80 L 62 80 L 62 84 Z M 62 76 L 50 76 L 50 72 L 62 72 L 62 76 Z M 62 68 L 50 68 L 50 64 L 62 64 L 62 68 Z M 62 60 L 50 60 L 50 56 L 62 56 L 62 60 Z M 62 52 L 50 52 L 50 48 L 62 48 L 62 52 Z M 68 40 L 68 41.9 C 64.9 40.7 59.9 39 55 39 C 49.6 39 46.3 39.9 42.9 40.8 C 39.2 41.8 35.3 42.8 28 43 L 28 40 C 28 38 27.4 36.3 26.7 35 L 69.3 35 C 68.6 36.3 68 38 68 40 Z" stroke="none" stroke-width="1" stroke-dasharray="" stroke-dashoffset="1" fill="#FFFFFF" fill-opacity="1"/></svg>