<?xml version="1.0" encoding="UTF-8" standalone="no"?>
<!DOCTYPE svg PUBLIC "-//W3C//DTD SVG 1.1//EN" "http://www.w3.org/Graphics/SVG/1.1/DTD/svg11.dtd">
<svg width="100%" height="100%" viewBox="0 0 128 128" version="1.1" xmlns="http://www.w3.org/2000/svg" xmlns:xlink="http://www.w3.org/1999/xlink" xml:space="preserve" xmlns:serif="http://www.serif.com/" style="fill-rule:evenodd;clip-rule:evenodd;stroke-linejoin:round;stroke-miterlimit:2;">
    <g transform="matrix(1.58772,0,0,1.58772,-38.5003,-37.5375)">
        <path d="M56.441,26.219C53.675,26.219 51.402,28.489 51.402,31.258C51.402,34.024 53.671,36.293 56.441,36.293C59.207,36.293 61.48,34.028 61.48,31.258C61.48,28.489 59.211,26.219 56.441,26.219ZM56.441,28.739C57.847,28.739 58.961,29.852 58.961,31.258C58.961,32.664 57.847,33.774 56.441,33.774C55.035,33.774 53.922,32.664 53.922,31.258C53.922,29.852 55.035,28.739 56.441,28.739ZM72.816,32.516C70.746,32.516 69.039,34.223 69.039,36.293C69.039,38.363 70.746,40.067 72.816,40.067C74.886,40.067 76.593,38.363 76.593,36.293C76.593,34.223 74.886,32.516 72.816,32.516ZM72.816,35.035C73.527,35.035 74.074,35.586 74.074,36.293C74.074,37.004 73.523,37.547 72.816,37.547C72.105,37.547 71.558,37.004 71.558,36.293C71.558,35.582 72.109,35.035 72.816,35.035ZM55.183,41.328C53.113,41.328 51.406,43.035 51.406,45.106C51.406,47.176 53.113,48.883 55.183,48.883L56.441,48.883L56.441,65.715C49.628,68.719 45.109,75.387 45.105,82.891C45.105,93.309 53.578,101.786 64,101.786C74.418,101.786 82.895,93.313 82.895,82.891C82.883,75.391 78.368,68.735 71.559,65.731L71.559,48.883L72.817,48.883C74.887,48.883 76.594,47.176 76.594,45.106C76.594,43.035 74.887,41.328 72.817,41.328L55.183,41.328ZM55.183,43.848L72.816,43.848C73.535,43.848 74.074,44.387 74.074,45.106C74.074,45.824 73.535,46.363 72.816,46.363L55.183,46.363C54.464,46.363 53.925,45.824 53.925,45.106C53.925,44.387 54.464,43.848 55.183,43.848ZM58.96,48.887L69.038,48.887L69.038,66.446C69.034,66.969 69.359,67.438 69.851,67.626C74.976,69.583 78.644,73.938 79.882,79.114L63.749,79.114C63.409,79.11 63.085,79.239 62.846,79.477C62.604,79.711 62.471,80.035 62.471,80.371C62.471,80.711 62.604,81.032 62.846,81.27C63.085,81.508 63.409,81.637 63.749,81.633L80.276,81.633C80.307,82.051 80.373,82.465 80.373,82.891C80.373,91.95 73.057,99.266 63.998,99.266C54.944,99.266 47.627,91.953 47.623,82.899C47.623,82.473 47.69,82.055 47.721,81.633L49.385,81.633C49.725,81.637 50.049,81.508 50.288,81.27C50.53,81.032 50.663,80.711 50.663,80.372C50.663,80.036 50.53,79.711 50.288,79.477C50.049,79.239 49.725,79.11 49.385,79.114L48.116,79.114C49.354,73.934 53.022,69.575 58.147,67.614C58.639,67.43 58.963,66.954 58.959,66.43L58.959,64L65.256,64L65.256,63.997C65.596,64.004 65.92,63.872 66.158,63.637C66.401,63.399 66.533,63.075 66.533,62.739C66.533,62.403 66.401,62.079 66.158,61.84C65.92,61.606 65.596,61.473 65.256,61.481L58.959,61.481L58.959,58.961L62.74,58.961C63.076,58.965 63.401,58.833 63.643,58.598C63.881,58.36 64.018,58.04 64.018,57.7C64.018,57.364 63.881,57.04 63.643,56.805C63.401,56.567 63.076,56.438 62.74,56.442L58.963,56.442L58.963,53.922L65.26,53.922L65.256,53.922C65.596,53.926 65.92,53.797 66.158,53.559C66.401,53.325 66.533,53.001 66.533,52.661C66.533,52.325 66.401,52.001 66.158,51.766C65.92,51.528 65.596,51.399 65.256,51.403L58.959,51.403L58.959,48.883L58.96,48.887ZM62.738,69.043C60.667,69.043 58.96,70.75 58.96,72.82C58.96,74.891 60.667,76.594 62.738,76.594C64.808,76.594 66.515,74.89 66.515,72.82C66.515,70.75 64.808,69.043 62.738,69.043ZM62.738,71.562C63.449,71.562 63.995,72.113 63.995,72.82C63.995,73.531 63.445,74.074 62.738,74.074C62.027,74.074 61.48,73.531 61.48,72.82C61.48,72.109 62.031,71.562 62.738,71.562ZM56.441,79.121C53.675,79.121 51.402,81.39 51.402,84.16C51.402,86.926 53.671,89.195 56.441,89.195C59.206,89.195 61.48,86.93 61.48,84.16C61.48,81.391 59.21,79.121 56.441,79.121ZM56.441,81.64C57.847,81.64 58.96,82.754 58.96,84.16C58.96,85.566 57.847,86.676 56.441,86.676C55.035,86.676 53.921,85.566 53.921,84.16C53.921,82.754 55.035,81.64 56.441,81.64ZM72.816,84.16C70.745,84.16 69.038,85.867 69.038,87.937C69.038,90.008 70.745,91.711 72.816,91.711C74.886,91.711 76.593,90.008 76.593,87.937C76.593,85.867 74.886,84.16 72.816,84.16ZM72.816,86.679C73.527,86.679 74.074,87.23 74.074,87.937C74.074,88.648 73.523,89.191 72.816,89.191C72.105,89.191 71.558,88.648 71.558,87.937C71.558,87.226 72.109,86.679 72.816,86.679Z" style="fill:white;fill-rule:nonzero;"/>
    </g>
</svg>
