<?xml version="1.0" encoding="UTF-8" standalone="no"?>
<!DOCTYPE svg PUBLIC "-//W3C//DTD SVG 1.1//EN" "http://www.w3.org/Graphics/SVG/1.1/DTD/svg11.dtd">
<svg width="100%" height="100%" viewBox="0 0 128 128" version="1.1" xmlns="http://www.w3.org/2000/svg" xmlns:xlink="http://www.w3.org/1999/xlink" xml:space="preserve" xmlns:serif="http://www.serif.com/" style="fill-rule:evenodd;clip-rule:evenodd;stroke-linejoin:round;stroke-miterlimit:2;">
    <path d="M100.35,17.922C100.35,17.242 100.08,16.59 99.6,16.11C99.12,15.629 98.471,15.36 97.791,15.36L30.205,15.36C29.276,15.328 28.401,15.805 27.924,16.602C27.444,17.399 27.436,18.395 27.901,19.199L36.991,35.711L36.991,96C36.991,100.415 38.744,104.645 41.866,107.766C44.987,110.888 49.217,112.641 53.632,112.641L83.71,112.641C88.124,112.641 92.358,110.888 95.476,107.766C98.597,104.645 100.351,100.415 100.351,96L100.35,17.922ZM34.557,20.481L95.229,20.481L95.229,72.961C92.241,73.257 89.354,74.222 86.784,75.777C84.213,77.32 81.268,78.14 78.272,78.14C75.272,78.14 72.327,77.32 69.76,75.777C66.452,73.746 62.627,72.722 58.752,72.832C54.916,72.75 51.139,73.769 47.869,75.777C46.076,76.89 44.072,77.633 41.983,77.953L41.983,35.07C42.01,34.628 41.92,34.187 41.725,33.792L34.557,20.481ZM83.709,107.52L53.631,107.52C47.268,107.52 42.111,102.363 42.111,96L42.111,83.07C45.056,82.753 47.896,81.792 50.431,80.257C52.955,78.671 55.896,77.867 58.877,77.952C61.861,77.866 64.798,78.671 67.326,80.257C70.631,82.284 74.455,83.308 78.334,83.199C82.213,83.308 86.037,82.284 89.342,80.257C91.139,79.14 93.139,78.398 95.229,78.077L95.229,95.999C95.229,102.363 90.072,107.519 83.709,107.519L83.709,107.52Z" style="fill:white;fill-rule:nonzero;"/>
    <g transform="matrix(0.783091,0,0,0.598032,15.7575,39.2447)">
        <path d="M99.074,96L99.27,73.127L93.952,72.961L36.849,77.726L36.991,96C36.991,100.415 38.744,104.645 41.866,107.766C44.987,110.888 49.217,112.641 53.632,112.641L83.71,112.641C88.124,112.641 91.081,110.888 94.199,107.766C97.32,104.645 99.074,100.415 99.074,96ZM93.952,72.961C90.964,73.257 89.354,74.222 86.784,75.777C84.213,77.32 81.268,78.14 78.272,78.14C75.272,78.14 72.327,77.32 69.76,75.777C66.452,73.746 59.639,68.597 55.764,68.707C51.928,68.625 50.599,70.542 47.329,72.549C45.536,73.663 44.24,76.963 42.15,77.284L93.952,72.961C93.979,72.519 93.035,72.709 93.952,72.961ZM83.709,107.52L53.631,107.52C47.268,107.52 42.111,102.363 42.111,96L42.111,83.07C45.056,82.753 47.896,81.792 50.431,80.257C52.955,78.671 55.896,77.867 58.877,77.952C61.861,77.866 64.798,78.671 67.326,80.257C70.631,82.284 74.455,83.308 78.334,83.199C82.213,83.308 86.037,82.284 89.342,80.257C91.139,79.14 91.862,78.398 93.952,78.077L93.952,95.999C93.952,102.363 90.072,107.519 83.709,107.519L83.709,107.52Z" style="fill:white;fill-rule:nonzero;"/>
    </g>
    <path d="M55.621,86.843L55.554,86.819C55.759,86.607 55.967,86.417 56.145,86.3C55.977,86.411 55.499,86.571 55.14,86.68C52.873,86.016 50.327,86.734 48.763,88.693C47.361,90.448 47.105,92.751 47.893,94.696C46.801,97.144 47.459,100.115 49.659,101.85C52.323,103.95 53.886,103.996 57.39,104.693C63.391,105.888 69.468,106.364 75.591,105.439C77.7,105.121 79.805,104.925 81.916,104.677C82.682,104.587 83.435,104.427 84.201,104.341C84.046,104.358 83.584,104.37 83.584,104.37C83.584,104.37 87.625,103.725 88.083,103.428C89.261,102.664 89.956,101.684 90.372,100.686C90.892,99.439 91.049,98.042 90.532,96.475C90.434,96.179 90.299,95.808 90.072,95.399C90.492,94.172 90.873,92.616 90.8,91.576C90.661,89.611 89.783,88.151 88.653,87.148C87.203,85.86 85.79,85.619 84.684,85.606C83.324,85.589 82.068,85.984 80.935,86.85C80.826,86.934 80.687,87.099 80.534,87.318C79.464,87.506 78.323,87.608 77.281,87.48C76.191,87.346 73.807,87.311 73.519,87.308C68.489,85.547 65.32,83.48 59.575,84.271C58.264,84.451 56.664,85.814 55.621,86.843ZM79.884,88.352C79.351,89.045 78.585,90.797 78.585,90.797C78.585,90.797 79.233,89.477 79.884,88.352ZM55.386,86.993C54.93,87.483 54.524,88.01 54.524,88.01C54.524,88.01 54.887,87.581 55.452,87.014L55.386,86.993Z" style="fill:white;"/>
    <path d="M89.568,96.237C90.558,95.809 91.444,95.107 92.103,94.156C93.522,92.11 93.271,90.557 93.202,89.937C93.004,88.154 92.177,86.921 91.131,86.027C90.143,85.183 88.803,84.519 86.987,84.589C86.308,84.615 83.722,85.204 82.17,87.125C80.089,89.701 80.491,93.482 83.067,95.563C84.967,97.099 87.524,97.282 89.568,96.237ZM82.061,87.597C81.466,88.543 81.265,89.369 81.217,90.017C81.316,89.18 81.594,88.355 82.061,87.597Z" style="fill:white;"/>
</svg>
