<?xml version="1.0" encoding="UTF-8"?>
<svg width="128pt" height="128pt" version="1.1" viewBox="0 0 128 128" xmlns="http://www.w3.org/2000/svg">
 <path d="m94.438 41.105-22.895 22.895 22.895 22.895c1.0273 0.99609 1.6172 2.3594 1.6289 3.793 0.011719 1.4297-0.55078 2.8047-1.5625 3.8164-1.0117 1.0117-2.3867 1.5742-3.8164 1.5625-1.4336-0.011718-2.7969-0.60156-3.793-1.6289l-22.895-22.895-22.895 22.895c-2.0938 2.0195-5.4219 1.9922-7.4766-0.066406-2.0586-2.0547-2.0859-5.3828-0.066406-7.4766l22.895-22.895-22.895-22.895c-2.0195-2.0938-1.9922-5.4219 0.066406-7.4766 2.0547-2.0586 5.3828-2.0859 7.4766-0.066406l22.895 22.895 22.895-22.895c0.99609-1.0273 2.3594-1.6172 3.793-1.6289 1.4297-0.011719 2.8047 0.55078 3.8164 1.5625 1.0117 1.0117 1.5742 2.3867 1.5625 3.8164-0.011718 1.4336-0.60156 2.7969-1.6289 3.793z" fill="#fff"/>
</svg>
